<svg xmlns="http://www.w3.org/2000/svg" viewBox="0 0 480 480" role="img" aria-label="Tomphie 标志">
  <style>
    g { stroke: #111419; }
    @media (prefers-color-scheme: dark) {
      g { stroke: #f3f5f7; }
    }
  </style>
  <g fill="none" stroke-width="32" stroke-linecap="round" stroke-linejoin="round">
    <path stroke-width="38" d="M 47 186 C 171 158 311 132 433 118"/>
    <path d="M 144 174 C 138 236 124 304 108 366"/>
    <path d="M 250 254 C 238 240 206 240 191 263 C 176 286 178 315 199 329 C 220 343 248 335 258 314 C 264 300 262 272 250 254"/>
    <path d="M 321 226 C 343 223 371 220 395 218"/>
    <path d="M 317 290 C 341 287 371 284 395 282"/>
    <path d="M 313 354 C 339 351 369 348 395 346"/>
  </g>
</svg>
